<svg width="24" height="24" viewBox="0 0 24 24" fill="none" xmlns="http://www.w3.org/2000/svg">
<path fill-rule="evenodd" clip-rule="evenodd" d="M7.03882 10.3771C7.30579 11.2623 7.62896 12.0926 7.98024 12.8935C8.58444 14.328 8.99192 15.0868 9.55524 16.0282L9.61771 16.1302C10.29 17.229 11.0415 18.4572 12.2543 19.2612C13.1676 19.8654 14.279 20.1745 15.3468 20.1745C16.8516 20.1745 18.1443 19.5141 18.9746 18.74C19.7895 17.9813 20.8447 16.5187 20.8447 13.665C20.8447 12.7378 21.2317 11.9344 21.5468 11.2803C21.566 11.2405 21.5849 11.2013 21.6034 11.1627C21.6034 11.1486 21.6175 11.1205 21.6456 11.0643C21.772 10.7833 21.9266 10.418 21.9266 10.0526C21.9266 9.78566 21.8563 9.47653 21.6737 9.20956C21.3926 8.73183 20.8868 8.56321 20.4218 8.56321C19.3399 8.56321 18.5939 9.32197 18.2145 10.0961L18.0881 10.349C17.9335 10.1242 17.779 9.88529 17.6525 9.67453C17.2591 8.98602 17.0343 8.52234 16.8375 7.93091C16.683 7.46723 16.5565 6.93329 16.4722 6.49642C16.2333 5.11814 15.8399 4.66851 15.1923 4.49989C14.7145 4.37343 14.1525 4.47179 13.7437 4.73876C13.464 4.10646 12.9863 3.82544 12.3527 3.82544C11.4534 3.82544 10.6372 4.41559 10.6372 5.41449C10.6372 5.521 10.6471 5.62751 10.6587 5.75081C10.6608 5.7739 10.6631 5.7976 10.6653 5.82197C10.5529 5.79387 10.4264 5.77982 10.2999 5.77982C9.33042 5.77982 8.61254 6.45427 8.61254 7.36887C8.61254 7.57964 8.64064 7.81851 8.7109 8.09953C8.62659 8.08548 8.54229 8.08548 8.45798 8.08548C7.98024 8.11358 7.54466 8.29624 7.23426 8.67562C6.92641 9.04095 6.79995 9.60299 7.03882 10.3771ZM7.83972 10.1242C7.71326 9.71667 7.72731 9.40755 7.88188 9.21083C8.03644 9.02817 8.2472 8.94386 8.50012 8.92981C8.93571 8.91576 9.10432 9.22488 9.35724 10.0258C9.5118 10.5316 9.82093 11.2636 10.0036 11.671C10.2425 12.1628 10.5797 12.8232 10.7342 13.0493C10.8607 13.246 10.9731 13.3023 11.0996 13.3023C11.3244 13.3023 11.493 13.1758 11.493 12.951C11.493 12.8372 11.3906 12.6551 11.3189 12.5276C11.3109 12.5134 11.3033 12.4999 11.2963 12.4873C11.2709 12.4392 11.2397 12.3815 11.2048 12.3167C11.0659 12.0591 10.8661 11.6887 10.7202 11.3632C10.5235 10.9136 10.2987 10.3515 10.116 9.84441C10.0036 9.54933 9.87713 9.1278 9.75067 8.70627C9.55396 8.05992 9.4556 7.66649 9.4556 7.37014C9.4556 6.9205 9.79282 6.62543 10.2987 6.62543C10.664 6.62543 10.9029 6.80809 11.0574 7.46849C11.1839 8.07269 11.4087 9.05754 11.7319 9.83036C11.9426 10.3362 12.2518 11.0119 12.4344 11.3492C12.4712 11.4134 12.5094 11.4747 12.5442 11.5305C12.616 11.6455 12.6733 11.7374 12.6733 11.7847C12.6733 11.8473 12.5995 11.9325 12.506 12.0405C12.4524 12.1023 12.3924 12.1716 12.3361 12.2484C12.2377 12.3749 12.1956 12.4592 12.1956 12.5575C12.1956 12.6419 12.2518 12.7262 12.3361 12.8386C12.4204 12.951 12.5047 13.0634 12.603 13.0634C12.6733 13.0634 12.7155 13.0353 12.7576 12.9791C13.1932 12.4311 13.6709 12.0517 14.2202 11.7413C14.8665 11.376 15.5282 11.1933 16.0481 11.0809C16.301 11.0247 16.3713 10.9685 16.3713 10.828C16.3713 10.6594 16.2448 10.561 16.0762 10.547C15.9729 10.5355 15.8789 10.5428 15.7407 10.5535C15.7098 10.5559 15.6766 10.5584 15.6406 10.561C15.5001 10.5751 15.4299 10.5048 15.3456 10.3221C15.3063 10.2392 15.2612 10.1473 15.212 10.0471C14.9445 9.50221 14.555 8.70859 14.3058 7.73546C14.1793 7.24368 14.0669 6.72379 13.9967 6.04806C13.9545 5.73893 14.0107 5.62652 14.1653 5.48601C14.362 5.3174 14.7133 5.24714 14.9802 5.3174C15.3034 5.40171 15.472 5.65463 15.6406 6.63948C15.7249 7.10317 15.8655 7.69331 16.0341 8.20043C16.2448 8.84678 16.5118 9.382 16.9193 10.0986C17.1441 10.492 17.4251 10.8995 17.7202 11.2942C17.664 11.4628 17.5656 11.5752 17.2425 11.8422C16.9193 12.1092 16.5961 12.3902 16.301 12.9101C16.0903 13.2895 15.9919 13.711 15.9919 13.992C15.9919 14.259 16.0481 14.3152 16.2167 14.3152C16.5118 14.3152 16.7507 14.259 16.7647 14.1325C16.835 13.6267 16.9193 13.3035 17.2003 12.9229C17.3689 12.7121 17.664 12.4451 17.9029 12.2344C18.3525 11.869 18.5071 11.6583 18.6616 11.1384C18.7319 10.8995 18.8162 10.6747 18.9286 10.4639C19.1956 9.97214 19.6733 9.4101 20.4193 9.4101C20.6582 9.4101 20.8549 9.48036 20.9813 9.67707C21.0516 9.78948 21.0797 9.94404 21.0797 10.0564C21.0797 10.2973 20.914 10.6274 20.8254 10.8039L20.8127 10.8293C20.7971 10.8627 20.7809 10.8971 20.7643 10.9323C20.4537 11.5927 19.9977 12.5617 19.9977 13.6689C19.9977 16.2134 19.0985 17.4793 18.3946 18.1256C17.7061 18.772 16.6229 19.3353 15.3443 19.3353C14.431 19.3353 13.4883 19.0683 12.7155 18.5625C11.6554 17.8604 10.9853 16.7659 10.3111 15.6646L10.2693 15.5964C9.72129 14.6831 9.34191 13.9652 8.75049 12.5742C8.41709 11.7681 8.10669 10.9813 7.83972 10.1242ZM12.3526 4.66976C11.9452 4.66976 11.4534 4.88053 11.4534 5.41447C11.4534 5.76575 11.5517 6.28564 11.6501 6.7059C11.7723 7.00222 11.8207 7.21665 11.9184 7.64944C11.9554 7.81365 11.9996 8.0093 12.0576 8.25279C12.184 8.77396 12.3386 9.2236 12.4932 9.61703C12.6758 10.096 12.8866 10.5035 13.1817 11.0515C13.3222 11.3185 13.3924 11.3185 13.7297 11.1358C13.9966 10.9953 14.3901 10.8267 14.6851 10.7283C14.1793 9.63236 13.7578 8.71776 13.547 7.94495C13.4908 7.72013 13.2941 6.81958 13.2379 6.42615C13.1957 6.03272 13.1536 5.69549 13.0552 5.33017C12.9428 4.88053 12.7882 4.66976 12.3526 4.66976Z" fill="black" class="filled"/>
<path d="M6.42063 14.8262C6.123 15.0101 4.54545 15.8366 4.18906 15.9681C3.93486 16.0627 3.65895 16.0397 3.49673 15.5594C3.29746 14.9654 3.5772 14.8249 3.97574 14.6703C4.32829 14.5337 5.79089 14.0048 6.13067 13.9128C6.36953 13.849 6.53559 13.9295 6.65056 14.2169C6.77702 14.5324 6.69016 14.6588 6.42063 14.8262Z" fill="black" class="filled"/>
<path d="M5.12026 11.4782C4.69617 11.4897 2.93467 11.4143 2.5323 11.3747C2.1823 11.3402 2.04051 11.1857 2.07884 10.6785C2.11971 10.1344 2.33176 10.1012 2.67537 10.1344C3.07391 10.1727 4.91971 10.4729 5.21351 10.5636C5.51752 10.6581 5.55967 10.7961 5.52263 11.0617C5.47537 11.4066 5.31953 11.4718 5.12026 11.4782Z" fill="black" class="filled"/>
<path d="M5.3387 7.91176C4.8533 7.75847 3.41243 6.88603 3.03688 6.66121C2.6971 6.45683 2.65367 6.27289 2.88998 5.82453C3.09947 5.42855 3.33195 5.35957 3.67684 5.5384C4.07666 5.74661 5.48815 6.84515 5.75768 7.06231C6.01826 7.27179 5.9825 7.38037 5.84582 7.6499C5.70914 7.91942 5.5814 7.9884 5.3387 7.91176Z" fill="black" class="filled"/>
</svg>
