<svg width="24" height="24" viewBox="0 0 24 24" fill="none" xmlns="http://www.w3.org/2000/svg">
<path d="M18.9331 5.63913C17.6579 5.05402 16.2905 4.62293 14.8607 4.37604C14.8347 4.37127 14.8087 4.38318 14.7952 4.407C14.6194 4.71979 14.4246 5.12785 14.2882 5.44858C12.7504 5.21836 11.2205 5.21836 9.71423 5.44858C9.57779 5.12072 9.37591 4.71979 9.19926 4.407C9.18584 4.38397 9.15983 4.37207 9.1338 4.37604C7.70484 4.62215 6.33739 5.05323 5.06142 5.63913C5.05037 5.64389 5.0409 5.65184 5.03462 5.66215C2.44087 9.53716 1.73033 13.3169 2.0789 17.0498C2.08047 17.0681 2.09072 17.0856 2.10492 17.0967C3.8162 18.3534 5.47388 19.1163 7.10076 19.622C7.1268 19.63 7.15439 19.6205 7.17096 19.599C7.5558 19.0735 7.89885 18.5193 8.19298 17.9366C8.21034 17.9025 8.19377 17.862 8.15829 17.8485C7.61416 17.6421 7.09603 17.3904 6.59763 17.1046C6.55821 17.0816 6.55505 17.0252 6.59132 16.9982C6.6962 16.9196 6.80111 16.8378 6.90126 16.7553C6.91938 16.7402 6.94462 16.737 6.96593 16.7465C10.2402 18.2415 13.785 18.2415 17.0207 16.7465C17.042 16.7362 17.0672 16.7394 17.0861 16.7545C17.1863 16.8371 17.2912 16.9196 17.3969 16.9982C17.4331 17.0252 17.4308 17.0816 17.3914 17.1046C16.893 17.396 16.3748 17.6421 15.8299 17.8477C15.7944 17.8612 15.7786 17.9025 15.796 17.9366C16.0964 18.5185 16.4395 19.0727 16.8172 19.5982C16.833 19.6205 16.8614 19.63 16.8874 19.622C18.5222 19.1163 20.1799 18.3534 21.8912 17.0967C21.9061 17.0856 21.9156 17.0689 21.9172 17.0506C22.3344 12.735 21.2185 8.98621 18.9591 5.66294C18.9536 5.65184 18.9441 5.64389 18.9331 5.63913ZM8.68195 14.7769C7.69616 14.7769 6.8839 13.8719 6.8839 12.7604C6.8839 11.6489 7.68041 10.7439 8.68195 10.7439C9.69135 10.7439 10.4957 11.6569 10.48 12.7604C10.48 13.8719 9.68346 14.7769 8.68195 14.7769ZM15.3299 14.7769C14.3442 14.7769 13.5319 13.8719 13.5319 12.7604C13.5319 11.6489 14.3284 10.7439 15.3299 10.7439C16.3393 10.7439 17.1437 11.6569 17.128 12.7604C17.128 13.8719 16.3393 14.7769 15.3299 14.7769Z" fill="black"/>
</svg>
