<svg width="24" height="24" viewBox="0 0 24 24" fill="none" xmlns="http://www.w3.org/2000/svg">
<path fill-rule="evenodd" clip-rule="evenodd" d="M11.9744 2C6.45879 2 2 6.49166 2 12.0485C2 16.4903 4.8569 20.2502 8.82019 21.581C9.3157 21.681 9.4972 21.3648 9.4972 21.0988C9.4972 20.8658 9.48087 20.0673 9.48087 19.2353C6.70624 19.8344 6.12845 18.0375 6.12845 18.0375C5.68255 16.8729 5.02187 16.5736 5.02187 16.5736C4.11374 15.9581 5.08802 15.9581 5.08802 15.9581C6.09538 16.0246 6.62397 16.9895 6.62397 16.9895C7.51556 18.5199 8.95228 18.0875 9.53028 17.8213C9.61276 17.1724 9.87716 16.7233 10.1579 16.4738C7.94492 16.2408 5.61661 15.3758 5.61661 11.516C5.61661 10.418 6.01269 9.51966 6.6403 8.821C6.54128 8.57151 6.1944 7.53986 6.73952 6.15908C6.73952 6.15908 7.58171 5.89284 9.48066 7.19053C10.2937 6.97057 11.1321 6.85868 11.9744 6.85774C12.8165 6.85774 13.6751 6.97431 14.4678 7.19053C16.367 5.89284 17.2092 6.15908 17.2092 6.15908C17.7543 7.53986 17.4072 8.57151 17.3082 8.821C17.9524 9.51966 18.3321 10.418 18.3321 11.516C18.3321 15.3758 16.0038 16.2241 13.7743 16.4738C14.1377 16.7898 14.4513 17.3886 14.4513 18.337C14.4513 19.6845 14.435 20.766 14.435 21.0986C14.435 21.3648 14.6167 21.681 15.112 21.5812C19.0753 20.25 21.9322 16.4903 21.9322 12.0485C21.9485 6.49166 17.4734 2 11.9744 2Z" fill="black" class="filled"/>
</svg>
