<svg width="24" height="24" viewBox="0 0 24 24" fill="none" xmlns="http://www.w3.org/2000/svg">
<path d="M12.203 10.1537V14.0864H17.6682C17.4282 15.3511 16.708 16.4221 15.6279 17.1421L18.9236 19.6993C20.8438 17.9269 21.9516 15.3235 21.9516 12.2309C21.9516 11.5109 21.887 10.8184 21.767 10.1538L12.203 10.1537Z" fill="black" class="filled"/>
<path d="M6.51197 13.9329L5.76866 14.5019L3.13759 16.5513C4.80852 19.8654 8.23322 22.1549 12.2028 22.1549C14.9446 22.1549 17.2434 21.2502 18.9236 19.6993L15.6279 17.1421C14.7232 17.7514 13.569 18.1207 12.2028 18.1207C9.56257 18.1207 7.31933 16.339 6.51612 13.9388L6.51197 13.9329Z" fill="black" class="filled"/>
<path d="M3.1376 7.44885C2.44526 8.81508 2.04834 10.3568 2.04834 12C2.04834 13.6432 2.44525 15.185 3.13759 16.5513C3.13759 16.5604 6.51645 13.9294 6.51645 13.9294C6.31336 13.3201 6.19331 12.6739 6.19331 11.9999C6.19331 11.3259 6.31336 10.6797 6.51645 10.0704L3.1376 7.44885Z" fill="black" class="filled"/>
<path d="M12.203 5.88869C13.6986 5.88869 15.0279 6.40565 16.0896 7.40268L18.9975 4.49474C17.2343 2.85153 14.9449 1.84521 12.203 1.84521C8.23343 1.84521 4.80853 4.12543 3.1376 7.44885L6.51645 10.0704C7.31956 7.67017 9.56278 5.88869 12.203 5.88869Z" fill="black" class="filled"/>
</svg>
