<svg width="24" height="24" viewBox="0 0 24 24" fill="none" xmlns="http://www.w3.org/2000/svg">
<path d="M12.013 3.8031C14.6883 3.8031 15.0052 3.81484 16.0573 3.86177C17.0351 3.9048 17.5631 4.06907 17.9152 4.20597C18.3806 4.38589 18.717 4.60492 19.0651 4.95302C19.4171 5.30504 19.6322 5.6375 19.8121 6.10294C19.949 6.45496 20.1133 6.98689 20.1563 7.9608C20.2033 9.01685 20.215 9.33366 20.215 12.0051C20.215 14.6804 20.2033 14.9972 20.1563 16.0493C20.1133 17.0272 19.949 17.5552 19.8121 17.9072C19.6322 18.3727 19.4132 18.709 19.0651 19.0571C18.7131 19.4091 18.3806 19.6243 17.9152 19.8042C17.5631 19.9411 17.0312 20.1054 16.0573 20.1484C15.0012 20.1953 14.6844 20.207 12.013 20.207C9.3377 20.207 9.02088 20.1953 7.96875 20.1484C6.99093 20.1054 6.4629 19.9411 6.11089 19.8042C5.64544 19.6243 5.30907 19.4052 4.96097 19.0571C4.60895 18.7051 4.39383 18.3727 4.21391 17.9072C4.07702 17.5552 3.91274 17.0233 3.86972 16.0493C3.82278 14.9933 3.81105 14.6765 3.81105 12.0051C3.81105 9.32975 3.82278 9.01294 3.86972 7.9608C3.91274 6.98298 4.07702 6.45496 4.21391 6.10294C4.39383 5.6375 4.61286 5.30113 4.96097 4.95302C5.31298 4.60101 5.64544 4.38589 6.11089 4.20597C6.4629 4.06907 6.99484 3.9048 7.96875 3.86177C9.02088 3.81484 9.3377 3.8031 12.013 3.8031ZM12.013 2C9.29467 2 8.95439 2.01173 7.88661 2.05867C6.82274 2.1056 6.09133 2.2777 5.4577 2.52411C4.79669 2.78226 4.23738 3.12254 3.68198 3.68185C3.12266 4.23726 2.78238 4.79657 2.52423 5.45367C2.27782 6.09121 2.10573 6.81871 2.05879 7.88258C2.01186 8.95427 2.00012 9.29455 2.00012 12.0129C2.00012 14.7312 2.01186 15.0715 2.05879 16.1393C2.10573 17.2032 2.27782 17.9346 2.52423 18.5682C2.78238 19.2292 3.12266 19.7885 3.68198 20.3439C4.23738 20.8993 4.79669 21.2435 5.45379 21.4978C6.09133 21.7442 6.81883 21.9163 7.8827 21.9632C8.95048 22.0101 9.29076 22.0219 12.0091 22.0219C14.7275 22.0219 15.0677 22.0101 16.1355 21.9632C17.1994 21.9163 17.9308 21.7442 18.5644 21.4978C19.2215 21.2435 19.7808 20.8993 20.3362 20.3439C20.8916 19.7885 21.2358 19.2292 21.4901 18.5721C21.7365 17.9346 21.9086 17.2071 21.9555 16.1432C22.0024 15.0754 22.0142 14.7352 22.0142 12.0168C22.0142 9.29846 22.0024 8.95818 21.9555 7.8904C21.9086 6.82653 21.7365 6.09512 21.4901 5.46149C21.2437 4.79657 20.9034 4.23726 20.3441 3.68185C19.7887 3.12645 19.2293 2.78226 18.5722 2.52802C17.9347 2.28161 17.2072 2.10952 16.1433 2.06258C15.0716 2.01173 14.7314 2 12.013 2Z" fill="black"/>
<path d="M12 5.83592C8.5969 5.83592 5.83596 8.59685 5.83596 12C5.83596 15.4031 8.5969 18.164 12 18.164C15.4031 18.164 18.1641 15.4031 18.1641 12C18.1641 8.59685 15.4031 5.83592 12 5.83592ZM12 15.9984C9.79221 15.9984 8.00159 14.2078 8.00159 12C8.00159 9.79217 9.79221 8.00154 12 8.00154C14.2078 8.00154 15.9985 9.79217 15.9985 12C15.9985 14.2078 14.2078 15.9984 12 15.9984Z" fill="black"/>
<path d="M19.8469 5.59212C19.8469 6.389 19.2 7.03119 18.4078 7.03119C17.611 7.03119 16.9688 6.38431 16.9688 5.59212C16.9688 4.79525 17.6156 4.15306 18.4078 4.15306C19.2 4.15306 19.8469 4.79994 19.8469 5.59212Z" fill="black"/>
</svg>
