<svg width="24" height="24" viewBox="0 0 24 24" fill="none" xmlns="http://www.w3.org/2000/svg">
<path d="M22.4125 12C22.4125 14.7588 21.9501 16.9966 21.3796 16.9966C20.8091 16.9966 20.347 14.7594 20.347 12C20.347 9.24064 20.8093 7.00343 21.3796 7.00343C21.9499 7.00343 22.4125 9.24044 22.4125 12Z" fill="black" class="filled"/>
<path d="M19.7771 12C19.7771 15.0799 18.4622 17.5776 16.8403 17.5776C15.2184 17.5776 13.9035 15.0799 13.9035 12C13.9035 8.92019 15.2182 6.42249 16.8401 6.42249C18.462 6.42249 19.7771 8.91939 19.7771 12Z" fill="black" class="filled"/>
<path d="M13.3339 12C13.3339 15.272 10.7042 17.9244 7.46055 17.9244C4.21689 17.9244 1.58704 15.2714 1.58704 12C1.58704 8.72867 4.21669 6.07544 7.46055 6.07544C10.7044 6.07544 13.3339 8.72807 13.3339 12Z" fill="black" class="filled"/>
</svg>
