<svg width="24" height="24" viewBox="0 0 24 24" fill="none" xmlns="http://www.w3.org/2000/svg">
<path d="M22.0726 16.6247C21.9327 16.2412 21.6633 16.0339 21.3576 15.8681C21.3006 15.837 21.2487 15.8059 21.2021 15.7852C21.1088 15.7386 21.0156 15.6919 20.9223 15.6453C19.9689 15.1375 19.2227 14.5053 18.7097 13.7488C18.5646 13.5364 18.4351 13.3084 18.3314 13.0752C18.2848 12.9508 18.29 12.8783 18.3211 12.8109C18.3522 12.7591 18.3936 12.7176 18.4454 12.6814C18.6112 12.5726 18.7771 12.4637 18.8911 12.3912C19.0931 12.2565 19.259 12.1528 19.3626 12.0803C19.7512 11.8057 20.0259 11.5155 20.1969 11.189C20.4404 10.733 20.4715 10.1993 20.2849 9.71742C20.0259 9.03344 19.3833 8.61372 18.6009 8.61372C18.4351 8.61372 18.2744 8.62926 18.1086 8.66553C18.0672 8.6759 18.0205 8.68626 17.9791 8.69663C17.9843 8.23027 17.9739 7.73801 17.9324 7.25093C17.7874 5.54614 17.1863 4.65488 16.5645 3.94499C16.1655 3.49936 15.6991 3.1211 15.1758 2.82574C14.2327 2.28684 13.1601 2.01221 11.9942 2.01221C10.8283 2.01221 9.76087 2.28684 8.8178 2.82574C8.29444 3.1211 7.82809 3.49936 7.4291 3.94499C6.80729 4.65488 6.21139 5.55132 6.06112 7.25093C6.01967 7.73801 6.0093 8.23027 6.01449 8.69663C5.97303 8.68626 5.93158 8.6759 5.88494 8.66553C5.72431 8.62926 5.5585 8.61372 5.39786 8.61372C4.61542 8.61372 3.97289 9.03862 3.7138 9.71742C3.52726 10.1993 3.55835 10.733 3.80189 11.189C3.97289 11.5155 4.24752 11.8057 4.63615 12.0803C4.73978 12.1528 4.90042 12.2565 5.10769 12.3912C5.2165 12.4637 5.37713 12.5674 5.53777 12.671C5.59477 12.7073 5.6414 12.7539 5.67767 12.8109C5.70877 12.8783 5.71395 12.9508 5.66213 13.0855C5.5585 13.3135 5.43413 13.5364 5.28905 13.7436C4.78642 14.4794 4.06098 15.1064 3.13863 15.609C2.65155 15.8681 2.14374 16.0391 1.92611 16.6247C1.76548 17.0651 1.86911 17.5625 2.27847 17.9874C2.42874 18.1429 2.60492 18.2776 2.79664 18.3813C3.19563 18.5989 3.62053 18.7699 4.06616 18.8891C4.15943 18.915 4.24234 18.9512 4.32006 19.0031C4.47033 19.1326 4.44961 19.3295 4.64651 19.6197C4.74497 19.77 4.87451 19.8995 5.0196 20.0031C5.43932 20.2933 5.91085 20.3089 6.4083 20.3296C6.85911 20.3451 7.36692 20.3659 7.95245 20.5576C8.19599 20.6353 8.44471 20.7908 8.73489 20.9721C9.43442 21.4022 10.3879 21.9877 11.989 21.9877C13.5902 21.9877 14.5488 21.397 15.2535 20.9669C15.5437 20.7908 15.7924 20.6353 16.0256 20.5576C16.6059 20.3659 17.1189 20.3451 17.5697 20.3296C18.0672 20.3089 18.5387 20.2933 18.9584 20.0031C19.1346 19.8788 19.2797 19.7233 19.3833 19.5368C19.5284 19.2932 19.5232 19.1222 19.658 19.0031C19.7305 18.9512 19.8134 18.915 19.8963 18.8943C20.3419 18.7751 20.7772 18.6041 21.1814 18.3813C21.3835 18.2724 21.57 18.1274 21.7255 17.9564L21.7306 17.9512C22.1348 17.5366 22.2333 17.0496 22.0726 16.6247ZM20.6528 17.3864C19.7875 17.8631 19.2071 17.8113 18.7615 18.1014C18.3781 18.345 18.6061 18.8735 18.3314 19.0652C17.9894 19.2984 16.9842 19.0497 15.6888 19.4798C14.6161 19.8321 13.9373 20.8529 12.0097 20.8529C10.0821 20.8529 9.41888 19.8373 8.33072 19.4798C7.03529 19.0497 6.03003 19.3036 5.68804 19.0652C5.41341 18.8735 5.63622 18.345 5.25796 18.1014C4.80715 17.8113 4.23198 17.8631 3.36663 17.3864C2.81218 17.0806 3.12827 16.8941 3.30963 16.806C6.44975 15.2878 6.95238 12.9405 6.9731 12.7643C6.99901 12.5518 7.0301 12.386 6.79693 12.1736C6.57411 11.9663 5.57922 11.3497 5.29941 11.1579C4.84342 10.8367 4.64133 10.5206 4.7916 10.1268C4.89524 9.85733 5.14914 9.7537 5.41341 9.7537C5.49631 9.7537 5.57922 9.76406 5.66213 9.7796C6.16476 9.88842 6.65184 10.1371 6.93165 10.2097C6.96792 10.2201 6.99901 10.2252 7.03529 10.2252C7.18556 10.2252 7.23737 10.1475 7.22701 9.97651C7.19592 9.42725 7.11819 8.35981 7.20628 7.35974C7.32546 5.98659 7.76591 5.3026 8.29444 4.70152C8.54835 4.41134 9.73496 3.15737 12.0097 3.15737C14.2845 3.15737 15.4711 4.40616 15.725 4.69634C16.2536 5.29742 16.694 5.9814 16.8132 7.35456C16.9013 8.35463 16.8236 9.42207 16.7873 9.97133C16.7769 10.1527 16.8287 10.2201 16.979 10.2201C17.0153 10.2201 17.0464 10.2149 17.0826 10.2045C17.3625 10.1371 17.8495 9.88324 18.3522 9.77442C18.4351 9.7537 18.518 9.74851 18.6009 9.74851C18.8652 9.74851 19.1191 9.85215 19.2227 10.1216C19.373 10.5154 19.1709 10.8315 18.7149 11.1528C18.4403 11.3445 17.4454 11.9611 17.2174 12.1684C16.9842 12.3808 17.0153 12.5466 17.0412 12.7591C17.0619 12.9353 17.5645 15.2826 20.7047 16.8008C20.8912 16.8889 21.2021 17.0806 20.6528 17.3864Z" fill="black" class="filled"/>
</svg>
