<svg width="24" height="24" viewBox="0 0 24 24" fill="none" xmlns="http://www.w3.org/2000/svg">
<path d="M11.9999 2C6.47724 2 2 6.47712 2 11.9998C2 17.5227 6.47724 21.9995 11.9999 21.9995C17.5232 21.9995 22 17.5227 22 11.9998C22 6.47747 17.5232 2.00048 11.9998 2.00048L11.9999 2ZM16.5858 16.4226C16.4067 16.7163 16.0222 16.8095 15.7285 16.6292C13.3806 15.195 10.4249 14.8702 6.94403 15.6655C6.6086 15.7419 6.27424 15.5318 6.19782 15.1962C6.12104 14.8607 6.33037 14.5263 6.66663 14.4499C10.4759 13.5793 13.7434 13.9543 16.3793 15.5652C16.673 15.7455 16.7662 16.1288 16.5858 16.4226ZM17.8098 13.6994C17.5841 14.0666 17.1041 14.1824 16.7375 13.9567C14.0495 12.3042 9.95214 11.8257 6.77279 12.7908C6.36046 12.9153 5.92496 12.683 5.79982 12.2713C5.67563 11.859 5.90812 11.4244 6.31974 11.299C9.95142 10.197 14.4663 10.7308 17.5531 12.6277C17.9197 12.8534 18.0355 13.3333 17.8098 13.6994ZM17.9149 10.8641C14.692 8.94978 9.37454 8.77377 6.29741 9.70769C5.80328 9.85755 5.28073 9.57861 5.13099 9.08448C4.98125 8.59011 5.25995 8.06792 5.75444 7.9177C9.28677 6.84538 15.1589 7.05256 18.8695 9.25536C19.3149 9.51914 19.4606 10.0932 19.1967 10.537C18.934 10.9815 18.3584 11.128 17.9154 10.8641H17.9149Z" fill="black"/>
</svg>
