<svg width="24" height="24" viewBox="0 0 24 24" fill="none" xmlns="http://www.w3.org/2000/svg">
<path fill-rule="evenodd" clip-rule="evenodd" d="M3.40589 3.40589C2 4.81177 2 7.0745 2 11.6V12.4C2 16.9255 2 19.1882 3.40589 20.5941C4.81177 22 7.0745 22 11.6 22H12.4C16.9255 22 19.1882 22 20.5941 20.5941C22 19.1882 22 16.9255 22 12.4V11.6C22 7.0745 22 4.81177 20.5941 3.40589C19.1882 2 16.9255 2 12.4 2H11.6C7.0745 2 4.81177 2 3.40589 3.40589ZM5.37505 8.08337C5.48338 13.2834 8.08337 16.4084 12.6417 16.4084H12.9001V13.4334C14.5751 13.6 15.8417 14.825 16.35 16.4084H18.7167C18.0667 14.0417 16.3583 12.7334 15.2916 12.2334C16.3583 11.6167 17.8583 10.1167 18.2166 8.08337H16.0666C15.5999 9.73337 14.2168 11.2334 12.9001 11.375V8.08337H10.75V13.85C9.41667 13.5167 7.73338 11.9 7.65837 8.08337H5.37505Z" fill="black"/>
</svg>
