<svg width="24" height="24" viewBox="0 0 24 24" fill="none" xmlns="http://www.w3.org/2000/svg">
<path d="M1.99976 22L3.40559 16.8642C2.53809 15.3608 2.08226 13.6567 2.08309 11.9092C2.08559 6.44583 6.53141 2 11.9939 2C14.6447 2.00083 17.1331 3.03333 19.0047 4.90667C20.8755 6.78 21.9055 9.27 21.9047 11.9183C21.9022 17.3825 17.4564 21.8283 11.9939 21.8283C10.3356 21.8275 8.70141 21.4117 7.25391 20.6217L1.99976 22ZM7.49724 18.8275C8.89391 19.6567 10.2272 20.1533 11.9906 20.1542C16.5306 20.1542 20.2289 16.4592 20.2314 11.9167C20.233 7.365 16.5522 3.675 11.9972 3.67333C7.45391 3.67333 3.75809 7.36833 3.75642 11.91C3.75559 13.7642 4.29892 15.1525 5.21142 16.605L4.37892 19.645L7.49724 18.8275ZM16.9864 14.2742C16.9247 14.1708 16.7597 14.1092 16.5114 13.985C16.2639 13.8608 15.0464 13.2617 14.8189 13.1792C14.5922 13.0967 14.4272 13.055 14.2614 13.3033C14.0964 13.5508 13.6214 14.1092 13.4772 14.2742C13.3331 14.4392 13.1881 14.46 12.9406 14.3358C12.6931 14.2117 11.8947 13.9508 10.9489 13.1067C10.2131 12.45 9.71557 11.6392 9.5714 11.3908C9.42724 11.1433 9.55641 11.0092 9.67974 10.8858C9.7914 10.775 9.92724 10.5967 10.0514 10.4517C10.1772 10.3083 10.2181 10.205 10.3014 10.0392C10.3839 9.87417 10.3431 9.72917 10.2806 9.605C10.2181 9.48167 9.72307 8.2625 9.51724 7.76667C9.31557 7.28417 9.11141 7.34917 8.95974 7.34167L8.48474 7.33333C8.31974 7.33333 8.05141 7.395 7.82474 7.64333C7.59808 7.89167 6.95808 8.49 6.95808 9.70917C6.95808 10.9283 7.84558 12.1058 7.96891 12.2708C8.09308 12.4358 9.71474 14.9375 12.1989 16.01C12.7897 16.265 13.2514 16.4175 13.6106 16.5317C14.2039 16.72 14.7439 16.6933 15.1706 16.63C15.6464 16.5592 16.6356 16.0308 16.8422 15.4525C17.0489 14.8733 17.0489 14.3775 16.9864 14.2742Z" fill="black"/>
</svg>
