<svg width="24" height="24" viewBox="0 0 24 24" fill="none" xmlns="http://www.w3.org/2000/svg">
<path d="M21.8005 8.00213C21.8005 8.00213 21.6052 6.62326 21.0037 6.0178C20.242 5.22094 19.3904 5.21704 18.9998 5.17016C16.203 4.96704 12.0039 4.96704 12.0039 4.96704H11.9961C11.9961 4.96704 7.79694 4.96704 5.00012 5.17016C4.6095 5.21704 3.75796 5.22094 2.99626 6.0178C2.39471 6.62326 2.2033 8.00213 2.2033 8.00213C2.2033 8.00213 2.00018 9.62319 2.00018 11.2403V12.7559C2.00018 14.3731 2.1994 15.9942 2.1994 15.9942C2.1994 15.9942 2.39471 17.373 2.99235 17.9785C3.75405 18.7753 4.75403 18.748 5.19933 18.8339C6.80086 18.9863 12 19.0332 12 19.0332C12 19.0332 16.203 19.0253 18.9998 18.8261C19.3904 18.7792 20.242 18.7753 21.0037 17.9785C21.6052 17.373 21.8005 15.9942 21.8005 15.9942C21.8005 15.9942 21.9998 14.377 21.9998 12.7559V11.2403C21.9998 9.62319 21.8005 8.00213 21.8005 8.00213ZM9.93361 14.5957V8.97477L15.3358 11.795L9.93361 14.5957Z" fill="black" class="filled"/>
</svg>
