<svg width="24" height="24" viewBox="0 0 24 24" fill="none" xmlns="http://www.w3.org/2000/svg">
<path d="M20.076 17.5902C19.7733 18.2894 19.415 18.9331 18.9999 19.5249C18.4341 20.3316 17.9708 20.89 17.6138 21.2001C17.0603 21.7091 16.4673 21.9698 15.8323 21.9846C15.3764 21.9846 14.8266 21.8549 14.1867 21.5917C13.5446 21.3298 12.9546 21.2001 12.4151 21.2001C11.8493 21.2001 11.2424 21.3298 10.5933 21.5917C9.94323 21.8549 9.41953 21.992 9.01912 22.0056C8.41018 22.0316 7.80321 21.7635 7.19735 21.2001C6.81066 20.8628 6.32699 20.2847 5.74757 19.4656C5.1259 18.5909 4.61481 17.5766 4.2144 16.4202C3.78558 15.1712 3.57062 13.9617 3.57062 12.7908C3.57062 11.4494 3.86045 10.2926 4.44098 9.32313C4.89723 8.54444 5.50419 7.93018 6.26386 7.47924C7.02353 7.02831 7.84435 6.79852 8.7283 6.78382C9.21197 6.78382 9.84625 6.93343 10.6345 7.22746C11.4204 7.52249 11.9251 7.6721 12.1464 7.6721C12.3118 7.6721 12.8724 7.49716 13.8229 7.1484C14.7216 6.82496 15.4802 6.69104 16.1016 6.74379C17.7855 6.87969 19.0506 7.54349 19.8919 8.73939C18.3859 9.65188 17.641 10.9299 17.6558 12.5695C17.6694 13.8466 18.1327 14.9093 19.0432 15.7531C19.4558 16.1447 19.9166 16.4474 20.4293 16.6624C20.3181 16.9848 20.2008 17.2937 20.076 17.5902ZM16.214 2.39308C16.214 3.39404 15.8483 4.32864 15.1194 5.19369C14.2398 6.22207 13.1759 6.81631 12.0221 6.72254C12.0074 6.60246 11.9989 6.47607 11.9989 6.34326C11.9989 5.38234 12.4172 4.35396 13.16 3.51313C13.5309 3.0874 14.0026 2.73341 14.5746 2.45102C15.1454 2.17285 15.6853 2.01902 16.193 1.99268C16.2079 2.12649 16.214 2.26031 16.214 2.39307V2.39308Z" fill="black"/>
</svg>
