<svg width="24" height="24" viewBox="0 0 24 24" fill="none" xmlns="http://www.w3.org/2000/svg">
<path d="M11.9996 1.95605C6.43214 1.95605 1.91876 6.46944 1.91876 12.0369C1.91876 16.7644 5.17366 20.7314 9.56446 21.8209V15.1176H7.48579V12.0369H9.56446V10.7094C9.56446 7.27832 11.1173 5.68797 14.4859 5.68797C15.1246 5.68797 16.2267 5.81338 16.6775 5.93838V8.73077C16.4396 8.70576 16.0263 8.69327 15.5129 8.69327C13.8601 8.69327 13.2214 9.31949 13.2214 10.9473V12.0369H16.5142L15.9484 15.1176H13.2214V22.0439C18.213 21.4411 22.0808 17.191 22.0808 12.0369C22.0804 6.46944 17.567 1.95605 11.9996 1.95605Z" fill="black"/>
</svg>
