<svg width="24" height="24" viewBox="0 0 24 24" fill="none" xmlns="http://www.w3.org/2000/svg">
<path fill-rule="evenodd" clip-rule="evenodd" d="M2 11.7C2 6.12751 6.3675 2 12 2C17.6325 2 22 6.13001 22 11.7025C22 17.275 17.6325 21.4026 12 21.4026C10.9875 21.4026 10.0175 21.2676 9.105 21.0176C8.9275 20.9701 8.7375 20.9826 8.57 21.0576L6.585 21.9326C6.46511 21.9854 6.33407 22.0081 6.2034 21.9985C6.07272 21.9888 5.94641 21.9473 5.83556 21.8774C5.72471 21.8075 5.63271 21.7115 5.56767 21.5978C5.50262 21.484 5.4665 21.356 5.4625 21.2251L5.4075 19.4451C5.4025 19.2251 5.3025 19.0201 5.14 18.8751C3.195 17.135 2 14.615 2 11.7ZM8.93251 9.87753L5.99501 14.5375C5.71251 14.985 6.26251 15.4875 6.68251 15.1675L9.83751 12.7725C9.94132 12.6937 10.068 12.6508 10.1983 12.6503C10.3287 12.6499 10.4557 12.6919 10.56 12.77L12.8975 14.5225C13.0633 14.6471 13.2531 14.7358 13.455 14.7833C13.6568 14.8308 13.8663 14.8359 14.0702 14.7983C14.2741 14.7607 14.468 14.6812 14.6397 14.5649C14.8113 14.4486 14.957 14.298 15.0675 14.1225L18.0075 9.46502C18.2875 9.01752 17.7375 8.51252 17.3175 8.83252L14.1625 11.2275C14.0587 11.3064 13.932 11.3493 13.8017 11.3497C13.6713 11.3502 13.5444 11.3082 13.44 11.23L11.1025 9.47752C10.9367 9.35301 10.7469 9.26422 10.5451 9.21676C10.3432 9.1693 10.1337 9.16421 9.92982 9.20179C9.72591 9.23938 9.532 9.31884 9.36035 9.43514C9.18869 9.55145 9.04301 9.70208 8.93251 9.87753Z" fill="black"/>
</svg>
