<svg width="24" height="24" viewBox="0 0 24 24" fill="none" xmlns="http://www.w3.org/2000/svg">
<path fill-rule="evenodd" clip-rule="evenodd" d="M8.60017 2H15.0001C16.9874 2 18.6001 3.61271 18.6001 5.60003C18.6001 6.99269 17.8081 8.20134 16.6503 8.79997C17.8081 9.39862 18.6001 10.6073 18.6001 12C18.6001 13.9873 16.9874 15.6 15.0001 15.6C13.8696 15.6 12.8604 15.0782 12.2002 14.2624V18.4C12.2002 20.3873 10.5875 22 8.60017 22C6.61285 22 5.00012 20.3873 5.00012 18.4C5.00012 17.0073 5.79211 15.7986 6.95 15.2C5.79211 14.6013 5.00012 13.3926 5.00012 12C5.00012 10.6073 5.7921 9.39862 6.94998 8.79997C5.79211 8.20134 5.00012 6.99269 5.00012 5.60003C5.00012 3.61271 6.61285 2 8.60017 2ZM5.80012 5.60003C5.80012 4.05454 7.05467 2.8 8.60017 2.8H11.4V8.39995H8.60017L8.59149 8.39996C7.04996 8.39527 5.80012 7.1426 5.80012 5.60003ZM11.4002 11.9619C11.4001 11.9746 11.4 11.9873 11.4 12C11.4 12.0127 11.4001 12.0254 11.4002 12.0381V14.7999H8.60015C7.05467 14.8 5.80012 13.5455 5.80012 12C5.80012 10.4574 7.05001 9.20461 8.59156 9.19996L8.60017 9.19997H11.4L11.4002 11.9619ZM12.2002 12.0335V11.9664C12.2182 10.4402 13.4596 9.20612 14.9886 9.19997H15.0001C15.0029 9.19997 15.0058 9.19997 15.0087 9.19996C16.5502 9.20461 17.8001 10.4574 17.8001 12C17.8001 13.5455 16.5456 14.8 15.0001 14.8C13.4658 14.8 12.2182 13.5636 12.2002 12.0335ZM12.7378 9.19997C12.5403 9.35978 12.36 9.54005 12.2002 9.73755V9.19997H12.7378ZM15.0088 8.39996C15.0059 8.39995 15.003 8.39995 15.0001 8.39995C14.9957 8.39995 14.9913 8.39996 14.9869 8.39997H12.2002V2.8H15.0001C16.5456 2.8 17.8001 4.05454 17.8001 5.60003C17.8001 7.1426 16.5503 8.39527 15.0088 8.39996ZM8.60017 15.5999C7.05467 15.5999 5.80012 16.8545 5.80012 18.4C5.80012 19.9455 7.05467 21.2 8.60017 21.2C10.1457 21.2 11.4002 19.9455 11.4002 18.4V15.5999H8.60017Z" fill="black"/>
</svg>
