<svg width="24" height="24" viewBox="0 0 24 24" fill="none" xmlns="http://www.w3.org/2000/svg">
<path d="M16.3893 11.2696C16.3031 11.2283 16.2156 11.1886 16.127 11.1505C15.9726 8.30606 14.4183 6.6776 11.8085 6.66094C11.7967 6.66086 11.7849 6.66086 11.7731 6.66086C10.2121 6.66086 8.91386 7.32718 8.11479 8.53966L9.5501 9.52425C10.147 8.61857 11.0839 8.4255 11.7738 8.4255C11.7818 8.4255 11.7898 8.4255 11.7977 8.42557C12.657 8.43105 13.3054 8.6809 13.7251 9.16813C14.0305 9.52284 14.2348 10.013 14.3359 10.6316C13.5741 10.5022 12.7501 10.4623 11.8693 10.5128C9.38799 10.6558 7.79282 12.1029 7.89996 14.1137C7.95432 15.1337 8.46247 16.0112 9.33073 16.5845C10.0648 17.0691 11.0103 17.306 11.9929 17.2524C13.2906 17.1812 14.3086 16.6861 15.0189 15.7808C15.5582 15.0933 15.8994 14.2024 16.05 13.0798C16.6684 13.453 17.1268 13.9442 17.3799 14.5346C17.8103 15.5382 17.8354 17.1875 16.4897 18.5321C15.3106 19.71 13.8933 20.2196 11.7514 20.2353C9.37544 20.2177 7.57852 19.4557 6.41022 17.9705C5.3162 16.5798 4.7508 14.571 4.72971 12C4.7508 9.42894 5.3162 7.42017 6.41022 6.02945C7.57852 4.54426 9.37541 3.78229 11.7514 3.76464C14.1446 3.78243 15.9728 4.54806 17.1858 6.04042C17.7806 6.77225 18.2291 7.69258 18.5247 8.76566L20.2067 8.3169C19.8483 6.99606 19.2845 5.85789 18.5172 4.91396C16.9621 3.0007 14.6877 2.02033 11.7572 2H11.7455C8.821 2.02026 6.57209 3.00435 5.06128 4.92493C3.71686 6.634 3.02337 9.01205 3.00007 11.993L3 12L3.00007 12.007C3.02337 14.9879 3.71686 17.366 5.06128 19.0751C6.57209 20.9956 8.821 21.9798 11.7455 22H11.7572C14.3573 21.982 16.19 21.3013 17.6998 19.7928C19.6751 17.8194 19.6156 15.3457 18.9646 13.8272C18.4975 12.7382 17.607 11.8538 16.3893 11.2696ZM11.9001 15.4903C10.8126 15.5516 9.68275 15.0634 9.62704 14.0179C9.58575 13.2427 10.1787 12.3777 11.9668 12.2747C12.1716 12.2629 12.3725 12.2571 12.5699 12.2571C13.2194 12.2571 13.827 12.3202 14.3794 12.4409C14.1733 15.0141 12.9648 15.4319 11.9001 15.4903Z" fill="black"/>
</svg>
