<svg width="24" height="24" viewBox="0 0 24 24" fill="none" xmlns="http://www.w3.org/2000/svg">
<path d="M22 8.99999L16 15M16 8.99999L22 15M9.63432 4.36567L6.46863 7.53136C6.29568 7.70431 6.2092 7.79079 6.10828 7.85263C6.01881 7.90746 5.92127 7.94786 5.81923 7.97236C5.70414 7.99999 5.58185 7.99999 5.33726 7.99999H3.6C3.03995 7.99999 2.75992 7.99999 2.54601 8.10898C2.35785 8.20485 2.20487 8.35784 2.10899 8.546C2 8.75991 2 9.03994 2 9.59999V14.4C2 14.96 2 15.2401 2.10899 15.454C2.20487 15.6421 2.35785 15.7951 2.54601 15.891C2.75992 16 3.03995 16 3.6 16H5.33726C5.58185 16 5.70414 16 5.81923 16.0276C5.92127 16.0521 6.01881 16.0925 6.10828 16.1473C6.2092 16.2092 6.29568 16.2957 6.46863 16.4686L9.63431 19.6343C10.0627 20.0627 10.2769 20.2769 10.4608 20.2913C10.6203 20.3039 10.7763 20.2393 10.8802 20.1176C11 19.9773 11 19.6744 11 19.0686V4.93136C11 4.32554 11 4.02264 10.8802 3.88237C10.7763 3.76067 10.6203 3.69608 10.4608 3.70864C10.2769 3.72311 10.0627 3.9373 9.63432 4.36567Z" stroke="black" stroke-width="2" stroke-linecap="round" stroke-linejoin="round"/>
</svg>
